<svg width="100" height="95" viewBox="0 0 100 95" fill="none" xmlns="http://www.w3.org/2000/svg">
<path d="M79.1842 18.052C79.4813 18.8236 79.7542 19.5947 80 20.3842C80.0499 20.5439 80.0499 20.5439 80.1007 20.7068C80.2106 21.0587 80.3199 21.4108 80.4291 21.7629C80.5078 22.0154 80.5865 22.2679 80.6652 22.5204C80.877 23.2002 81.0883 23.8802 81.2995 24.5601C81.4314 24.9846 81.5634 25.4091 81.6954 25.8335C83.1516 30.5134 84.5982 35.1962 86.036 39.8818C86.16 40.2858 86.2843 40.6898 86.4089 41.0937C86.6877 41.9991 86.9627 42.9052 87.2273 43.8149C87.2748 43.9762 87.3223 44.1376 87.3713 44.3038C87.4583 44.5999 87.5438 44.8965 87.6274 45.1936C87.9233 46.1942 88.3116 46.6619 89.177 47.2488C90.7109 48.386 91.5769 50.2679 91.9264 52.1087C92.2221 54.3114 91.6218 55.8303 90.2673 57.5996C89.233 58.8029 88.1951 59.6596 86.6297 60.0571C86.0702 60.2833 85.9292 60.477 85.6169 60.9831C85.5213 61.135 85.4256 61.287 85.3271 61.4435C85.2272 61.6078 85.1273 61.7721 85.0244 61.9414C84.9176 62.1127 84.8106 62.2839 84.7033 62.4549C84.4843 62.8046 84.2665 63.155 84.0498 63.5061C83.5929 64.2425 83.1235 64.9708 82.6542 65.6993C82.4799 65.9714 82.3057 66.2436 82.1315 66.5158C81.5158 67.478 80.8995 68.4399 80.2832 69.4018C79.8444 70.0868 79.4057 70.7717 78.9673 71.4569C77.4194 73.8753 75.8642 76.2891 74.3075 78.7019C73.2885 80.2818 72.2711 81.8625 71.2663 83.4513C70.8804 84.0608 70.4877 84.6641 70.0826 85.2612C69.1411 85.2132 68.5445 84.7361 67.8072 84.2063C67.7004 84.1314 67.5936 84.0564 67.4836 83.9791C67.2365 83.8052 66.9907 83.6292 66.7453 83.4529C66.795 82.4782 67.1455 81.9679 67.7408 81.2113C68.5685 80.1168 69.335 78.9956 70.0731 77.8395C70.1751 77.6798 70.2771 77.52 70.3823 77.3554C70.5875 77.0333 70.7924 76.7111 70.9971 76.3887C71.3728 75.7976 71.7511 75.2083 72.1296 74.6189C72.9408 73.3553 73.7475 72.0887 74.5524 70.8211C75.3961 69.4931 76.2455 68.1687 77.0948 66.8442C77.3585 66.4329 77.6219 66.0214 77.8853 65.6099C79.8713 62.5066 81.8633 59.4074 83.8867 56.3281C84.2158 56.4074 84.533 56.4922 84.8537 56.6012C85.3217 56.6344 85.5463 56.5184 85.918 56.2416C86.8028 55.4628 87.7277 54.4893 87.8704 53.2789C87.8325 52.0649 87.1958 50.5547 86.3144 49.7082C85.8424 49.4578 85.4553 49.5911 84.9485 49.6976C84.5164 48.7628 84.214 47.8009 83.9104 46.8185C83.855 46.6408 83.7996 46.4632 83.7425 46.2801C83.5934 45.8014 83.4447 45.3226 83.2964 44.8436C83.141 44.3423 82.9849 43.8412 82.829 43.34C82.4727 42.1945 82.1177 41.0486 81.763 39.9025C81.7194 39.7618 81.6758 39.621 81.6309 39.476C80.9092 37.1455 80.1965 34.8124 79.484 32.4791C79.4297 32.3013 79.3754 32.1234 79.3194 31.9402C79.0397 31.0244 78.7602 30.1086 78.4808 29.1927C77.9748 27.5349 77.4671 25.8776 76.9508 24.2228C76.9078 24.0847 76.8648 23.9467 76.8205 23.8044C76.6227 23.17 76.4243 22.5358 76.2247 21.9019C76.1556 21.6809 76.0866 21.4599 76.0176 21.239C75.929 20.9573 75.929 20.9573 75.8386 20.67C75.7053 20.1975 75.6 19.745 75.5435 19.2576C75.862 18.7068 76.5303 18.5851 77.1079 18.4005C77.2067 18.3666 77.3056 18.3327 77.4074 18.2978C78.0179 18.0981 78.5429 18.0155 79.1842 18.052Z" fill="#244B94"/>
<path d="M41.5642 8.40773C41.8928 8.69258 42.1767 8.99401 42.4744 9.31189C43.0224 9.51551 43.6166 9.51004 44.1958 9.54262C44.3647 9.55281 44.3647 9.55281 44.537 9.5632C44.9144 9.58583 45.2919 9.60764 45.6694 9.62946C45.9401 9.64552 46.2107 9.66163 46.4813 9.67779C47.0644 9.71249 47.6476 9.74683 48.2307 9.7809C49.154 9.83482 50.0772 9.88954 51.0004 9.94437C52.4622 10.0311 53.9239 10.1173 55.3857 10.2032C57.9993 10.3569 60.6127 10.5114 63.2262 10.6662C64.1426 10.7205 65.059 10.7745 65.9755 10.8283C66.5479 10.8619 67.1203 10.8957 67.6926 10.9295C67.9565 10.9451 68.2204 10.9606 68.4844 10.976C69.8784 11.0574 71.2705 11.146 72.6614 11.2709C72.7185 13.8376 72.7185 13.8376 72.3581 15.0382C72.308 15.088 72.2579 15.1377 72.2064 15.1889C71.7352 15.1798 71.2684 15.1609 70.7981 15.1346C70.6545 15.1272 70.5109 15.1197 70.3629 15.1121C69.9155 15.0885 69.4681 15.0636 69.0208 15.0382C68.8904 15.0308 68.76 15.0235 68.6257 15.0159C67.8597 14.9719 67.0939 14.9254 66.3281 14.8778C65.8975 14.851 65.4669 14.8246 65.0363 14.7982C64.4144 14.76 63.7924 14.7218 63.1705 14.6834C61.5189 14.5815 59.8673 14.4803 58.2156 14.3795C58.0476 14.3693 57.8796 14.359 57.7064 14.3485C55.2404 14.1981 52.774 14.0529 50.3074 13.9122C50.0794 13.8991 50.0794 13.8991 49.8469 13.8858C48.3932 13.8028 46.9394 13.7202 45.4856 13.639C44.9569 13.6094 44.4283 13.5794 43.8997 13.5493C43.6561 13.5355 43.4125 13.5219 43.1689 13.5086C42.8373 13.4903 42.5057 13.4715 42.1741 13.4525C41.9892 13.4422 41.8043 13.4319 41.6138 13.4212C41.135 13.3827 40.6713 13.316 40.199 13.2299C40.224 13.0714 40.2491 12.9129 40.2748 12.7496C40.2574 12.1962 40.2574 12.1962 39.9928 11.9478C38.9084 11.2045 37.4118 10.9614 36.1169 11.1614C35.0842 11.5181 34.1957 12.6044 33.6762 13.5313C33.53 13.9795 33.4358 14.421 33.3728 14.8875C33.573 15.0367 33.7732 15.1859 33.9796 15.3396C33.8904 15.8323 33.7413 16.0885 33.3953 16.4492C33.2595 16.5921 33.2595 16.5921 33.1209 16.7379C33.0226 16.8391 32.9242 16.9402 32.8229 17.0443C32.6712 17.2027 32.6712 17.2027 32.5165 17.3643C31.7133 18.1989 30.8944 19.0183 30.0642 19.8265C29.6121 20.2689 29.18 20.7184 28.7663 21.1966C28.1565 21.8985 27.4961 22.5448 26.831 23.1945C25.8977 24.0963 25.8977 24.0963 25.0403 25.0676C24.8848 25.25 24.8848 25.25 24.7262 25.4361C24.6261 25.4361 24.526 25.4361 24.4229 25.4361C24.385 25.5229 24.3471 25.6098 24.308 25.6993C24.0931 26.0862 23.8481 26.3402 23.5299 26.6487C23.3537 26.8212 23.3537 26.8212 23.174 26.9971C23.0511 27.116 22.9282 27.2349 22.8016 27.3574C21.8056 28.3217 21.8056 28.3217 20.8693 29.3423C20.0735 30.2637 19.1851 31.0977 18.3154 31.9494C17.6283 32.6261 16.9653 33.3088 16.336 34.0388C15.776 34.6684 15.1603 35.2459 14.5568 35.8339C13.9526 36.4272 13.3785 37.0345 12.8276 37.6772C12.4709 38.0784 12.1256 38.3925 11.6806 38.6971C11.0274 38.6804 10.6534 38.1846 10.23 37.7458C10.157 37.6725 10.0839 37.5991 10.0087 37.5236C9.80378 37.3156 9.6043 37.1023 9.40518 36.8887C9.30682 36.7871 9.20846 36.6856 9.10712 36.5809C8.95009 36.286 8.95009 36.286 9.05098 35.934C9.28144 35.4771 9.54089 35.1978 9.90944 34.842C10.0406 34.7139 10.1717 34.5858 10.3067 34.4538C10.4441 34.3218 10.5815 34.1898 10.723 34.0538C11.5416 33.2608 12.3438 32.471 13.0872 31.6076C13.6795 30.9418 14.332 30.3313 14.9698 29.709C15.5819 29.1076 16.1616 28.4926 16.7229 27.8445C17.2878 27.2124 17.9056 26.6304 18.5127 26.0388C19.0068 25.5537 19.4855 25.0649 19.9384 24.5413C20.6458 23.7254 21.4248 22.9824 22.1972 22.2279C22.7286 21.7055 23.2484 21.1823 23.7355 20.6186C24.4703 19.7692 25.2844 18.9979 26.0873 18.2128C26.7484 17.5624 27.3785 16.901 27.9834 16.1989C28.2777 15.8732 28.6078 15.6014 28.9452 15.3208C29.679 14.6091 29.741 13.9711 29.8275 12.9833C30.0217 11.2353 31.3816 9.59222 32.6143 8.40773C35.2077 6.39149 38.8521 6.67538 41.5642 8.40773Z" fill="#244B94"/>
<path d="M10.315 44.8755C12.6109 47.431 13.9056 51.3853 15.4424 54.4495C15.6835 54.9302 15.925 55.4106 16.1664 55.8911C16.5348 56.6242 16.903 57.3575 17.2709 58.0908C17.5958 58.738 17.9215 59.3848 18.2481 60.0311C19.104 61.726 19.937 63.4321 20.7725 65.137C21.5251 66.6721 22.2798 68.2055 23.0614 69.7263C23.1192 69.8393 23.177 69.9522 23.2366 70.0686C23.5041 70.5908 23.7732 71.1121 24.0456 71.6318C24.1395 71.8144 24.2333 71.9971 24.3271 72.1798C24.4083 72.3355 24.4895 72.4912 24.5732 72.6516C24.7343 73.0775 24.7436 73.2432 24.5742 73.6579C24.3739 73.7076 24.1737 73.7573 23.9674 73.8086C23.6969 75.152 23.9863 76.3506 24.7353 77.51C25.4318 78.3804 26.054 78.5806 27.153 78.7815C28.1336 78.8702 28.9138 78.937 29.7318 78.3294C29.8662 77.9389 29.8662 77.9389 29.8834 77.5759C31.0362 77.6818 32.1381 77.9617 33.2592 78.2393C33.4761 78.2925 33.6931 78.3456 33.91 78.3987C34.4965 78.5425 35.0828 78.6871 35.6691 78.832C36.1633 78.954 36.6577 79.0755 37.1521 79.197C41.0224 80.1486 44.8879 81.1185 48.7512 82.0971C50.9625 82.6571 53.1746 83.2121 55.3923 83.7467C55.5833 83.7928 55.7744 83.8389 55.9713 83.8865C56.8617 84.1012 57.7525 84.3145 58.6438 84.5256C58.9528 84.5997 59.2619 84.6738 59.571 84.748C59.711 84.7806 59.8511 84.8133 59.9954 84.847C60.122 84.8775 60.2486 84.9081 60.3791 84.9396C60.4888 84.9655 60.5984 84.9915 60.7114 85.0182C60.9807 85.1106 60.9807 85.1106 61.284 85.412C61.3511 86.5268 60.9889 87.7241 60.5256 88.7272C60.0705 89.0286 60.0705 89.0286 59.6226 88.9689C59.3456 88.9 59.3456 88.9 59.0629 88.8296C58.96 88.8046 58.8571 88.7795 58.751 88.7537C58.4047 88.6689 58.0592 88.5813 57.7136 88.4938C57.466 88.4325 57.2183 88.3714 56.9705 88.3105C56.2957 88.1441 55.6216 87.9752 54.9476 87.8059C54.2401 87.6287 53.5321 87.4537 52.8242 87.2784C51.4795 86.9452 50.1353 86.61 48.7913 86.274C47.2741 85.8949 45.7563 85.5179 44.2385 85.1412C42.1208 84.6155 40.0033 84.0891 37.8863 83.5607C37.3881 83.4364 36.8899 83.3124 36.3915 83.1885C35.4005 82.9421 34.4099 82.6947 33.4221 82.4358C33.2788 82.3986 33.1354 82.3615 32.9877 82.3232C32.74 82.2588 32.4925 82.1931 32.2455 82.1258C31.355 81.8955 30.8125 81.9885 30.0144 82.4034C29.2168 82.7654 28.5031 82.7861 27.6365 82.7654C27.4897 82.7634 27.3429 82.7614 27.1917 82.7594C25.4258 82.7152 23.5936 82.3707 22.233 81.159C20.6099 79.3294 19.8978 77.0971 19.9819 74.6939C20.0234 74.11 20.0234 74.11 20.1511 73.652C20.187 72.757 19.7975 72.1402 19.3858 71.3598C19.2601 71.1135 19.2601 71.1135 19.1318 70.8622C18.8627 70.3361 18.5899 69.8119 18.3168 69.2878C18.051 68.7719 17.786 68.2556 17.5213 67.7392C17.3567 67.4189 17.1915 67.0989 17.0253 66.7794C16.4789 65.724 15.9595 64.6579 15.4468 63.586C14.6471 61.9158 13.8147 60.2634 12.972 58.6143C12.5482 57.784 12.1267 56.9525 11.7048 56.1213C11.1724 55.0726 10.6393 54.0243 10.1037 52.9772C9.66592 52.1213 9.2305 51.2642 8.79666 50.4063C8.63174 50.0812 8.46595 49.7566 8.29928 49.4324C8.06829 48.9829 7.84032 48.5319 7.61303 48.0806C7.54364 47.9473 7.47425 47.814 7.40275 47.6766C7.34176 47.554 7.28077 47.4314 7.21793 47.3051C7.16389 47.199 7.10985 47.0929 7.05416 46.9836C6.9777 46.6838 6.9777 46.6838 7.08309 46.3638C7.4073 45.9008 7.8974 45.6927 8.39035 45.4406C8.49115 45.3858 8.59195 45.331 8.69581 45.2746C9.73161 44.7331 9.73161 44.7331 10.315 44.8755Z" fill="#244B94"/>
<path d="M74.4811 22.5731C75.0352 22.7614 75.2063 22.8249 75.5429 23.3266C75.6297 23.6493 75.705 23.975 75.774 24.3019C75.8187 24.5079 75.8635 24.7138 75.9084 24.9196C75.9321 25.0295 75.9557 25.1393 75.9801 25.2524C77.7473 33.3835 80.3348 41.585 83.908 49.1184C85.3928 52.2934 85.3928 52.2934 84.9479 53.7666C84.0759 55.5911 82.6108 57.1441 81.28 58.6513C80.5587 59.472 79.8843 60.3209 79.2272 61.1931C79.0185 61.4697 78.8081 61.7449 78.5975 62.02C74.7387 67.0755 71.1916 72.4407 68.1544 78.0235C68.0931 78.1353 68.0319 78.2471 67.9688 78.3623C67.8586 78.5649 67.7501 78.7683 67.6437 78.9728C67.3298 79.5506 67.046 79.8647 66.4413 80.1379C66.3412 80.1379 66.2411 80.1379 66.1379 80.1379C66 78.9525 66.4468 78.2635 67.067 77.2747C67.2631 76.9524 67.459 76.63 67.6549 76.3076C67.7558 76.1434 67.8567 75.9791 67.9606 75.8099C68.3421 75.1835 68.7104 74.5501 69.0782 73.9157C72.4667 68.0767 76.3798 62.5762 80.7005 57.3832C80.3747 57.3832 80.0316 57.7876 79.7998 57.9766C79.6639 58.0867 79.528 58.1968 79.388 58.3103C78.1485 59.3459 76.9777 60.4506 75.8332 61.5878C75.6097 61.8094 75.3851 62.0298 75.1604 62.2501C74.3305 63.0698 73.5587 63.9172 72.8284 64.8272C72.5244 65.2004 72.209 65.5576 71.8845 65.9133C71.2877 66.5737 70.7466 67.2662 70.2147 67.9788C70.1173 68.1088 70.02 68.2388 69.9197 68.3727C68.2934 70.5545 66.7596 72.7726 65.3403 75.0932C65.2018 75.3181 65.0632 75.543 64.9244 75.7678C64.8674 75.8614 64.8104 75.955 64.7516 76.0514C64.4632 76.5079 64.3414 76.6619 63.8246 76.8791C63.6869 76.9102 63.5493 76.9413 63.4074 76.9733C63.2873 75.8364 63.6474 75.2238 64.2702 74.2891C64.3593 74.1512 64.4484 74.0133 64.5401 73.8712C64.8165 73.4462 65.0972 73.0244 65.3795 72.6032C65.4629 72.478 65.5463 72.3528 65.6322 72.2238C67.4013 69.5785 69.2931 67.0296 71.3558 64.6031C71.573 64.3457 71.7863 64.0858 71.9983 63.8242C73.0527 62.5407 74.2255 61.3724 75.4007 60.1993C75.527 60.0727 75.527 60.0727 75.6558 59.9435C76.7305 58.868 77.8333 57.8718 79.0319 56.9311C79.2195 56.7778 79.4067 56.6239 79.593 56.469C79.8242 56.2772 80.0554 56.0854 80.2866 55.8936C80.4752 55.7372 80.6637 55.5807 80.8522 55.4242C79.8907 55.7134 79.0088 56.0776 78.1217 56.545C77.9976 56.6104 77.8735 56.6758 77.7456 56.7431C75.5995 57.9019 73.7145 59.3837 71.9023 60.9998C71.7781 61.1092 71.7781 61.1092 71.6515 61.2208C70.8154 61.9579 70.0045 62.6995 69.2856 63.5528C68.9749 63.9158 68.6467 64.2596 68.3185 64.6071C67.4083 65.5987 66.607 66.6661 65.7948 67.7372C65.3462 68.3246 64.8884 68.9048 64.4314 69.4858C63.0807 71.187 63.0807 71.187 61.8087 72.9458C61.4848 73.3261 61.1601 73.314 60.6769 73.3567C60.6041 72.5532 60.7984 72.1553 61.2458 71.4919C61.3067 71.4013 61.3675 71.3108 61.4302 71.2175C62.713 69.3341 64.1391 67.5524 65.5994 65.8031C65.815 65.5441 66.0282 65.2833 66.241 65.0221C67.2292 63.8271 68.312 62.7265 69.4088 61.6309C69.4821 61.5573 69.5554 61.4837 69.6309 61.4079C70.6384 60.3985 71.6892 59.47 72.8124 58.5888C72.9769 58.456 73.1412 58.3232 73.3054 58.1902C75.9359 56.1302 80.0198 53.095 83.5827 53.3145C83.5827 53.215 83.5827 53.1156 83.5827 53.0131C83.4736 52.9729 83.3645 52.9327 83.2521 52.8913C76.3393 49.9903 71.9521 40.9124 69.3079 34.4722C68.7724 33.1511 68.2861 31.8142 67.8255 30.4656C67.7919 30.3687 67.7583 30.2717 67.7237 30.1718C67.6295 29.898 67.5384 29.6232 67.4475 29.3484C67.3957 29.1927 67.3439 29.037 67.2905 28.8765C67.1927 28.4167 67.2069 28.1417 67.3515 27.6967C67.4516 27.5972 67.5517 27.4977 67.6549 27.3953C68.3634 28.0009 68.6397 28.5815 68.949 29.4479C68.9965 29.5751 69.0439 29.7023 69.0928 29.8334C69.1944 30.1061 69.2952 30.3791 69.3951 30.6524C69.6587 31.3718 69.9299 32.0883 70.2011 32.8049C70.2551 32.9481 70.3092 33.0913 70.3649 33.2388C72.8267 39.7249 76.1075 46.1472 81.7624 50.4513C81.5495 50.0054 81.3043 49.6049 81.0235 49.1981C80.9372 49.072 80.8509 48.9459 80.762 48.816C80.6697 48.6812 80.5775 48.5464 80.4825 48.4075C79.4723 46.9152 78.5433 45.3936 77.6666 43.8208C77.605 43.712 77.5434 43.6031 77.4798 43.491C74.7127 38.5848 70.5692 30.8073 70.8404 25.1349C70.9155 24.9111 70.9155 24.9111 70.9921 24.6828C71.5822 24.9051 71.7636 25.1915 72.054 25.7376C72.1501 26.0263 72.235 26.3189 72.3106 26.6135C72.356 26.7858 72.4014 26.958 72.4482 27.1354C72.4964 27.3206 72.5447 27.5058 72.5944 27.6967C74.3799 34.3515 77.19 43.498 82.2175 48.4923C82.1772 48.402 82.137 48.3118 82.0956 48.2187C79.398 42.1226 77.3718 35.7952 75.6946 29.3543C75.6615 29.2275 75.6283 29.1008 75.5941 28.9702C75.3931 28.2014 75.195 27.4318 75.0008 26.6613C74.9394 26.4185 74.8773 26.176 74.8146 25.9336C74.7275 25.5962 74.6433 25.2583 74.5599 24.92C74.5115 24.7282 74.4632 24.5364 74.4134 24.3388C74.3169 23.6953 74.3726 23.2116 74.4811 22.5731ZM82.3691 48.7937C82.5208 49.0951 82.5208 49.0951 82.5208 49.0951L82.3691 48.7937Z" fill="#244B94"/>
<path d="M40.9669 13.9363C41.1357 13.9631 41.3045 13.9899 41.4785 14.0175C42.5329 14.1873 43.5838 14.3742 44.6343 14.5661C51.2376 15.7702 57.9735 16.3267 64.6844 16.4251C64.8272 16.4274 64.97 16.4298 65.1171 16.4322C65.8098 16.4434 66.5023 16.4516 67.1951 16.454C67.4454 16.4572 67.6956 16.4605 67.9459 16.4639C68.1159 16.4628 68.1159 16.4628 68.2893 16.4616C69.0294 16.4757 69.4046 16.6325 69.9309 17.1479C69.4657 17.6085 69.0708 17.6535 68.4274 17.6589C68.3086 17.6575 68.1898 17.6562 68.0673 17.6547C67.9412 17.655 67.8151 17.6552 67.6852 17.6554C67.2676 17.6552 66.8501 17.6513 66.4325 17.6471C66.1382 17.6454 65.8439 17.6437 65.5496 17.6419C57.7542 17.5798 49.9864 16.9381 42.3227 15.4903C49.4708 18.2528 56.8605 19.8197 64.5268 20.2348C64.6314 20.2407 64.7359 20.2466 64.8436 20.2527C65.347 20.281 65.8501 20.3063 66.354 20.3261C66.6231 20.3401 66.6231 20.3401 66.8976 20.3543C67.0554 20.3609 67.2131 20.3675 67.3756 20.3742C67.904 20.4831 68.1728 20.707 68.5657 21.0659C68.118 21.4959 67.7672 21.5723 67.1514 21.5732C67.0424 21.5706 66.9334 21.5679 66.8212 21.5651C66.6432 21.5624 66.6432 21.5624 66.4617 21.5596C57.7347 21.3644 49.052 19.6337 40.9574 16.3945C46.0328 21.5597 54.8168 22.8592 61.6162 23.8067C62.1683 23.8839 62.7204 23.9614 63.2723 24.0402C63.6115 24.0885 63.9509 24.1361 64.2903 24.1826C64.4425 24.2043 64.5947 24.2259 64.7515 24.2483C64.8844 24.2667 65.0172 24.2852 65.1541 24.3043C65.8381 24.4436 66.1982 24.5454 66.5937 25.1347C66.4408 25.3613 66.4408 25.3613 66.1386 25.5867C65.7236 25.6126 65.3559 25.608 64.944 25.5773C64.8188 25.5691 64.6936 25.5609 64.5647 25.5524C56.1683 24.9257 46.4655 22.8661 39.8956 17.2986C39.7125 17.1445 39.7125 17.1445 39.5258 16.9872C38.8734 16.4254 38.3153 15.8541 37.7719 15.1889C37.7666 15.2773 37.7614 15.3658 37.756 15.4569C37.1242 25.4812 30.9411 34.0575 24.1728 41.1393C23.7486 41.4606 23.4314 41.5143 22.9059 41.5602C22.9544 40.6096 23.2481 40.1729 23.8919 39.4882C24.0593 39.3025 24.2266 39.1167 24.3938 38.9307C24.5178 38.7946 24.5178 38.7946 24.6444 38.6556C24.9648 38.2989 25.2678 37.9295 25.57 37.5574C25.9778 37.0574 26.3924 36.5651 26.8164 36.0786C30.8268 31.4564 36.1032 24.4653 36.1032 18.0521C36.0429 18.1767 36.0429 18.1767 35.9813 18.3038C32.6999 25.0428 28.2653 31.0175 23.0627 36.4177C22.8399 36.649 22.6179 36.8811 22.3965 37.1137C22.0158 37.5122 21.6317 37.9071 21.2467 38.3015C21.0663 38.4912 21.0663 38.4912 20.8822 38.6848C19.9165 39.6618 19.9165 39.6618 19.2552 39.7578C19.1083 39.7558 18.9614 39.7539 18.8101 39.7519C18.8431 38.7396 19.2108 38.3277 19.9348 37.6475C20.0331 37.5515 20.1314 37.4555 20.2326 37.3566C20.5464 37.0509 20.8632 36.7484 21.1804 36.4461C21.4936 36.1436 21.8061 35.8406 22.1183 35.5371C22.3123 35.3491 22.507 35.1616 22.7024 34.975C23.3653 34.3379 23.9748 33.6665 24.5745 32.9707C24.7185 32.8075 24.8626 32.6444 25.0071 32.4815C26.1905 31.1338 27.2916 29.7332 28.3668 28.2992C28.4484 28.1912 28.53 28.0832 28.614 27.9719C30.3435 25.675 31.8592 23.2631 33.259 20.7551C33.365 20.5655 33.365 20.5655 33.4732 20.372C33.5702 20.1954 33.5702 20.1954 33.669 20.0152C33.7256 19.9122 33.7821 19.8093 33.8404 19.7032C33.9806 19.406 34.0626 19.1258 34.1312 18.8055C34.0786 18.8699 34.026 18.9343 33.9718 19.0006C33.4513 19.6375 32.9304 20.2742 32.4094 20.9108C32.2021 21.1642 31.9951 21.4179 31.7882 21.6717C30.3883 23.3831 28.9397 25.0438 27.4227 26.6537C27.2175 26.874 27.0142 27.0962 26.8119 27.3191C25.6945 28.5459 24.5308 29.722 23.3515 30.89C23.0275 31.2111 22.7043 31.533 22.3812 31.8549C22.1716 32.0631 21.9619 32.2711 21.7522 32.4792C21.6575 32.5735 21.5628 32.6679 21.4653 32.7651C20.8918 33.3318 20.2999 33.8688 19.688 34.3942C19.3741 34.6653 19.0713 34.9459 18.7716 35.2323C18.664 35.3343 18.5563 35.4362 18.4454 35.5413C18.2263 35.7498 18.0074 35.9585 17.7889 36.1676C16.0699 37.7929 16.0699 37.7929 15.1695 37.7929C15.1841 37.0829 15.275 36.7191 15.7858 36.2106C15.9822 36.0319 16.1814 35.8561 16.383 35.6832C16.4689 35.6084 16.5547 35.5336 16.6432 35.4566C16.8318 35.2929 17.0209 35.1297 17.2103 34.9669C19.048 33.3564 20.7829 31.6376 22.5129 29.9148C22.909 29.5205 23.3059 29.127 23.7029 28.7336C23.9587 28.4794 24.2145 28.2251 24.4702 27.9708C24.587 27.855 24.7038 27.7393 24.8241 27.6201C25.4477 26.998 26.0471 26.3636 26.6229 25.6975C26.9604 25.3089 27.3131 24.9357 27.6653 24.5601C28.3171 23.8592 28.9345 23.1379 29.5365 22.3939C29.8373 22.0268 30.1455 21.6676 30.4574 21.3098C31.2498 20.398 31.9854 19.4518 32.7091 18.4853C36.6544 13.2185 36.6544 13.2185 40.9669 13.9363Z" fill="#244B94"/>
<path d="M21.9954 44.7248C22.7633 45.0055 23.0499 45.3064 23.3861 46.0121C23.4371 46.1281 23.4882 46.2441 23.5408 46.3636C23.5975 46.4878 23.6542 46.612 23.7126 46.74C27.4792 55.1736 30.7162 65.4232 27.7597 74.562C27.898 74.4872 28.0362 74.4124 28.1787 74.3354C36.1519 70.1341 46.0333 71.0327 54.5811 72.7631C54.7637 72.8001 54.9464 72.837 55.1346 72.8751C57.6164 73.399 57.6164 73.399 58.0226 73.9875C58.0477 74.0776 58.0727 74.1678 58.0985 74.2606C57.5798 74.6042 57.4724 74.5882 56.8779 74.5219C56.729 74.5053 56.58 74.4887 56.4266 74.4717C55.7536 74.3818 55.0865 74.271 54.4187 74.1488C54.1257 74.0966 53.8326 74.0444 53.5395 73.9923C53.389 73.9653 53.2385 73.9383 53.0834 73.9104C45.6418 72.5811 38.003 71.6812 30.7936 74.562C30.969 74.5511 31.1444 74.5403 31.3251 74.5291C39.7908 74.0444 48.1361 75.0564 56.2971 77.3122C56.56 77.3838 56.56 77.3838 56.8283 77.4569C57.0681 77.5263 57.0681 77.5263 57.3127 77.5971C57.4508 77.6368 57.5889 77.6764 57.7312 77.7173C58.1617 77.9048 58.4053 78.123 58.7052 78.48C58.7052 78.5795 58.7052 78.679 58.7052 78.7814C57.4954 79.1821 56.421 78.7422 55.2447 78.3953C47.9796 76.3326 40.1742 75.1385 32.6139 75.7676C32.9081 76.0598 33.4361 76.0313 33.8387 76.0884C34.0709 76.1227 34.303 76.157 34.5351 76.1915C34.659 76.2098 34.7828 76.228 34.9104 76.2468C41.6285 77.2471 48.1703 78.8918 54.6569 80.8817C54.8971 80.9547 54.8971 80.9547 55.1422 81.0292C55.5967 81.1679 56.0504 81.3089 56.5039 81.4509C56.639 81.492 56.7742 81.5331 56.9134 81.5754C57.6241 81.8017 58.1505 82.0297 58.7052 82.5488C58.6552 82.6979 58.6051 82.8471 58.5536 83.0008C57.7801 83.1944 57.2259 83.076 56.4909 82.8237C56.3796 82.7874 56.2683 82.7512 56.1536 82.7138C55.913 82.6354 55.6727 82.5562 55.4326 82.4763C54.7835 82.2608 54.1318 82.0534 53.4801 81.8459C53.3463 81.8033 53.2125 81.7606 53.0746 81.7167C46.5323 79.6452 39.7206 78.132 32.9179 77.2139C32.7944 77.1972 32.6709 77.1805 32.5436 77.1633C31.9585 77.0851 31.3733 77.0096 30.7873 76.9388C27.4484 76.5245 27.4484 76.5245 26.5997 75.6598C25.4967 74.2257 24.952 72.3365 24.3796 70.6439C22.998 66.5742 21.3403 62.6265 19.4849 58.7477C19.2655 58.2884 19.0488 57.8278 18.8323 57.3671C18.0069 55.6217 17.1341 53.9046 16.2215 52.2029C16.17 52.1068 16.1185 52.0107 16.0655 51.9117C15.5593 50.9697 15.0456 50.0341 14.4919 49.1184C14.4134 48.9883 14.3349 48.8583 14.254 48.7242C14.1115 48.4912 13.9666 48.2595 13.8187 48.0298C13.3637 47.2909 13.2786 46.7962 13.3488 45.9303C13.8665 46.0586 14.1817 46.1383 14.526 46.5544C14.5976 46.6876 14.6693 46.8208 14.7431 46.9581C14.8259 47.1085 14.9086 47.2589 14.9939 47.4139C15.0799 47.577 15.1659 47.7401 15.2545 47.9082C15.3463 48.0767 15.438 48.2453 15.5326 48.419C15.7239 48.771 15.9142 49.1233 16.1029 49.4768C16.3656 49.967 16.6321 50.4549 16.9006 50.942C17.3123 51.6895 17.7199 52.4391 18.125 53.1901C18.2732 53.4646 18.4218 53.7389 18.5708 54.013C21.3876 59.1984 23.6347 64.6517 25.636 70.1919C24.7162 62.3076 21.9519 53.975 17.8142 47.1461C17.4114 46.4515 17.3956 45.9563 17.4446 45.1769C18.0357 45.2607 18.2719 45.4858 18.6581 45.9303C18.9327 46.3666 19.1702 46.8198 19.4071 47.2771C19.4789 47.415 19.5506 47.5528 19.6246 47.6948C23.4432 55.1384 25.9329 62.9917 27.153 71.2468C28.3265 65.7386 27.1161 60.0657 25.3326 54.8212C25.2876 54.6879 25.2425 54.5547 25.1961 54.4173C24.6949 52.9544 24.1283 51.5202 23.5366 50.0915C23.485 49.9665 23.4334 49.8415 23.3802 49.7128C23.1196 49.0821 22.857 48.4523 22.5912 47.8238C22.4936 47.5898 22.3962 47.3558 22.2988 47.1217C22.2528 47.015 22.2069 46.9082 22.1596 46.7982C21.9061 46.1841 21.7802 45.6898 21.8437 45.0262C21.8937 44.9267 21.9438 44.8272 21.9954 44.7248Z" fill="#244B94"/>
<path d="M40.1982 23.0249C40.6323 23.0614 40.8768 23.0847 41.1693 23.4174C41.6851 24.4217 42.0933 25.4551 42.4926 26.5097C44.0795 30.6001 45.9967 34.2325 49.0036 37.4703C49.2436 37.7316 49.4681 37.9958 49.6886 38.2732C50.0767 38.7181 50.4885 39.0872 50.9394 39.4675C51.1573 39.6539 51.3713 39.845 51.5806 40.0409C57.7837 45.8335 65.7724 48.7799 73.8693 50.841C74.5292 51.0091 75.1881 51.1804 75.8462 51.3552C76.078 51.4162 76.078 51.4162 76.3144 51.4785C76.69 51.5877 76.69 51.5877 77.2115 51.8073C77.3199 52.1224 77.3199 52.1224 77.3632 52.4101C75.4179 53.3097 72.7411 52.5465 70.6999 52.2553C63.5478 51.251 56.3437 52.8773 49.9066 56.0267C49.7617 56.0966 49.6167 56.1664 49.4674 56.2384C44.6016 58.5995 40.2995 61.7356 36.4948 65.5517C36.1953 65.8521 35.8945 66.1512 35.5935 66.4501C34.3194 67.7151 34.3194 67.7151 33.1305 69.0583C32.8764 69.3312 32.6279 69.5427 32.3101 69.7398C31.893 69.6173 31.893 69.6173 31.5517 69.4384C31.7466 68.0711 32.8691 67.0363 33.7779 66.0584C34.2622 65.5264 34.712 64.9691 35.1651 64.4108C35.4634 64.0522 35.7734 63.7128 36.093 63.373C40.0466 58.9711 41.7501 52.8336 42.6253 47.1358C42.6433 47.0235 42.6613 46.9111 42.6798 46.7953C43.7162 40.0224 42.5209 33.2747 40.5892 26.7858C40.5403 26.6217 40.4915 26.4575 40.4412 26.2883C40.3979 26.1451 40.3546 26.0018 40.31 25.8542C40.128 25.1732 40.0251 24.5111 40.0276 23.8066C40.027 23.6327 40.027 23.6327 40.0264 23.4552C40.0465 23.1756 40.0465 23.1756 40.1982 23.0249ZM42.3219 29.0526C42.4736 29.354 42.4736 29.354 42.4736 29.354L42.3219 29.0526ZM42.4736 29.354C42.5743 30.4315 42.7707 31.4698 42.9951 32.528C44.9536 42.0236 43.9646 52.8927 38.833 61.301C38.5881 61.6593 38.3337 62.0074 38.0745 62.3558C38.1246 62.4553 38.1746 62.5547 38.2262 62.6572C38.3461 62.5511 38.4659 62.4451 38.5894 62.3358C46.7624 55.191 57.4405 50.6441 68.4132 51.0538C68.814 51.0864 69.2129 51.1266 69.6124 51.1713C69.9789 51.2096 70.3393 51.2198 70.7076 51.2139C70.9986 51.2093 70.9986 51.2093 71.2954 51.2045C70.8231 50.8917 70.4558 50.7733 69.9124 50.6194C69.725 50.5655 69.5375 50.5115 69.3444 50.456C69.2452 50.4276 69.1459 50.3992 69.0436 50.37C62.1737 48.3963 55.8917 45.2037 50.5857 40.3929C50.331 40.1626 50.0741 39.9347 49.8154 39.7089C49.0203 39.0133 48.3027 38.3047 47.6312 37.4914C47.5667 37.4158 47.5022 37.3401 47.4358 37.2622C45.3813 34.85 43.9337 32.225 42.6253 29.354C42.5753 29.354 42.5252 29.354 42.4736 29.354Z" fill="#244B94"/>
<path d="M39.8949 18.052C40.4967 18.1158 40.8637 18.4492 41.3265 18.8149C41.5028 18.9524 41.6792 19.0897 41.8556 19.227C41.9533 19.3034 42.051 19.3799 42.1517 19.4586C47.2101 23.4028 52.6211 26.9854 58.7223 29.1382C59.3539 29.3687 59.7804 29.578 60.2218 30.1075C60.1718 30.2567 60.1217 30.4059 60.0701 30.5596C59.4 30.7107 58.9999 30.7108 58.3642 30.4536C58.2139 30.3937 58.0637 30.3338 57.9088 30.272C57.7492 30.2053 57.5895 30.1386 57.425 30.0698C57.258 30.0015 57.091 29.9333 56.9189 29.8629C52.4577 28.0145 48.0519 25.7735 44.294 22.7235C44.2156 22.6609 44.1372 22.5983 44.0564 22.5338C43.0117 21.6981 42.0327 20.8077 41.08 19.8698C40.9325 19.7253 40.9325 19.7253 40.782 19.578C40.6905 19.4864 40.5989 19.3949 40.5046 19.3006C40.3828 19.1791 40.3828 19.1791 40.2586 19.0551C40.0309 18.787 39.8882 18.5215 39.7432 18.2027C39.7933 18.153 39.8433 18.1033 39.8949 18.052Z" fill="#244B94"/>
<path d="M63.7108 34.7791C64.4526 34.9665 64.7656 35.1661 65.1898 35.7963C65.2922 35.9445 65.3947 36.0927 65.5003 36.2454C65.6657 36.4893 65.6657 36.4893 65.8345 36.7381C66.0851 37.0945 66.3387 37.4486 66.593 37.8024C66.6575 37.8925 66.7221 37.9825 66.7887 38.0753C67.3531 38.8584 67.9458 39.6135 68.565 40.3547C68.6911 40.5063 68.8172 40.6578 68.9472 40.8139C70.7446 42.957 72.6295 45.0576 74.8271 46.8022C75.2296 47.128 75.6146 47.4663 75.998 47.8141C76.6395 48.3942 77.3017 48.9419 77.9759 49.484C78.7926 50.1466 79.5939 50.8274 80.3971 51.506C80.322 51.7298 80.322 51.7298 80.2454 51.9581C78.2681 51.222 76.5733 49.9369 74.9361 48.6429C74.8502 48.5754 74.7643 48.508 74.6758 48.4385C73.4057 47.4299 72.2488 46.3049 71.0964 45.1675C70.9569 45.0304 70.8175 44.8933 70.6738 44.752C69.7546 43.8345 68.9212 42.8738 68.1099 41.8617C67.9435 41.6615 67.7767 41.4617 67.6092 41.2624C66.5076 39.9406 65.4792 38.5804 64.5063 37.1622C64.3298 36.9066 64.1476 36.655 63.965 36.4038C63.6028 35.8067 63.6635 35.4602 63.7108 34.7791Z" fill="#244B94"/>
<path d="M79.7907 53.465C79.8407 53.6142 79.8908 53.7634 79.9423 53.9171C79.8236 53.9677 79.7048 54.0184 79.5824 54.0706C72.7693 56.9801 66.2089 60.0104 60.6215 64.9606C60.1338 65.2762 59.735 65.3242 59.1603 65.3698C59.1883 64.7095 59.2428 64.3926 59.6901 63.8905C59.8585 63.7495 60.0298 63.6117 60.2032 63.4767C60.297 63.4005 60.3909 63.3243 60.4876 63.2459C60.8004 62.9951 61.1172 62.7502 61.4357 62.5066C61.5459 62.4219 61.6561 62.3373 61.7696 62.2501C66.2374 58.8453 73.8329 53.0951 79.7907 53.465Z" fill="#244B94"/>
<path d="M37.7719 18.6547C37.9721 18.7045 38.1723 18.7542 38.3786 18.8054C38.6504 25.9138 36.2102 34.888 32.1592 40.8066C31.7603 41.1666 31.6457 41.2587 31.0973 41.2587C31.0417 40.3469 31.1665 39.7631 31.6188 38.9606C31.7315 38.748 31.8436 38.5351 31.9553 38.322C32.014 38.2109 32.0727 38.0999 32.1331 37.9855C35.2664 31.9327 36.5924 25.2983 37.7719 18.6547Z" fill="#244B94"/>
<path d="M51.8032 66.6977C52.0032 66.695 52.0032 66.695 52.2073 66.6922C52.3352 66.6919 52.4631 66.6916 52.5949 66.6913C52.709 66.6906 52.8231 66.69 52.9406 66.6894C53.2443 66.726 53.2443 66.726 53.6994 67.0274C53.4339 67.6113 53.4339 67.6113 53.0926 67.7809C52.7535 67.8182 52.4136 67.8476 52.0734 67.8733C51.8598 67.8901 51.6463 67.907 51.4327 67.924C51.32 67.9329 51.2074 67.9417 51.0913 67.9508C44.7694 68.4542 38.923 69.938 32.9748 72.055C32.8321 72.1056 32.6894 72.1562 32.5423 72.2083C32.2897 72.2986 32.0375 72.3903 31.7861 72.4838C30.9947 72.7701 30.9947 72.7701 30.4902 72.603C30.7435 71.8484 31.4831 71.6533 32.1684 71.3033C32.3246 71.2232 32.4808 71.1432 32.6418 71.0607C38.4058 68.1745 45.3544 66.7026 51.8032 66.6977Z" fill="#244B94"/>
<path d="M29.7317 47.5879C30.0973 47.7332 30.2984 47.8224 30.503 48.1638C30.6403 48.4883 30.7092 48.7634 30.7604 49.1108C30.7784 49.2319 30.7965 49.353 30.815 49.4779C30.9141 50.2036 31.0096 50.9294 31.097 51.6566C31.1135 51.7928 31.13 51.9289 31.147 52.0692C31.78 57.5885 32.4538 66.0823 29.58 71.0961C29.2663 71.1894 29.2663 71.1894 28.9733 71.2468C28.9839 71.1595 28.9945 71.0722 29.0054 70.9822C29.0999 70.204 29.1939 69.4257 29.2873 68.6473C29.3727 67.9375 29.4594 67.2279 29.5475 66.5184C29.9854 63.0154 29.9854 63.0154 30.1868 59.4927C30.1929 59.3136 30.1989 59.1345 30.2052 58.95C30.2586 56.0353 30.0479 53.0297 29.5615 50.1555C29.4285 49.3287 29.4059 48.5634 29.58 47.7386C29.6301 47.6889 29.6802 47.6392 29.7317 47.5879Z" fill="#244B94"/>
</svg>
